<svg id="Layer_1" enable-background="new 0 0 512 512" viewBox="0 0 512 512" xmlns="http://www.w3.org/2000/svg"><g><g><path d="m210.4 280.5c-.1 51.9-.1 103.8-.2 155.8-.1 0-.2-.1-.3-.1-53.3-32.5-110.5-47.8-163.9-43.9.2-28 1.6-236.6 1.7-258.6 37.5-2.7 102.6 20.2 137.8 34.1v73.8c6.5 2.9 14.3 6 23.2 9-1.9 10.5-3.4 20.5-4.5 30h6.2z" fill="#e5e8f3"/></g><g><path d="m209.8 436.1c-62-17.9-128.5-17.8-190.6.2v-256.4c9.3-2.7 18.7-5 28.1-6.9l-1.4 219.2c53.4-3.9 110.6 11.5 163.9 43.9z" fill="#d5dae7"/></g><g><path d="m404.6 308.1v128.3c-63.2-18.5-130.9-18.3-194.1 0v-155.9h34.7c-.8-6.7-1.7-13.7-3-20.9 12.8 2.7 26.9 4.9 42.2 5.9.2-.2.5-.4.7-.5-19.5 15.9-3.4 47.8 21.3 41.1 0 0 67.2-18.5 67.2-18.5 2.5 1.2 9.1 4.7 13.7 12.5 4.2 7.3 4.1 14.2 4 17 2.6-2.4 7.1-5.9 13.3-9z" fill="#d5dae7"/></g><g><path d="m419.6 302.5 4.2-.9v160.4c0 2.9-2.4 5.3-5.3 5.3h-413.2c-2.9 0-5.3-2.4-5.3-5.3v-265.2c0-2.9 2.4-5.3 5.3-5.3h13.9v244.8c62.1-18.1 128.5-18.1 190.6-.2h.1c63.4-17.6 131.2-18.6 194.6.2v-128.2c4.2-2.2 9.3-4.2 15.1-5.6z" fill="#416079"/></g><g opacity=".78"><path d="m404.5 436.4c.4 5.4-3.7 10.2-9.2 10.2h-366.9c-5.5 0-9.7-4.8-9.2-10.2 62.3-18.2 129-18.1 191.3 0 63.2-18.4 130.9-18.5 194 0z" fill="#d5dae7"/></g><g><path d="m504.4 98.5c-47.3 12.7-152.1 40.9-200.2 53.8-48.4-13-152.6-41-200.2-53.8l200.2-53.8z" fill="#e76a81"/></g><g><path d="m423 120.4v104.5c-3.3.9-10.2 2.8-13.4 3.7-1.6 1.1-130.6 33.9-125.3 36.9-15.3-1-29.4-3.1-42.2-5.9-3.7-24.7-10.6-54.8-17.7-78.1-6.1 20.6-12.4 46.8-16 69-8.9-3-16.7-6.1-23.2-8.9v-121.2l118.8 31.9z" fill="#e0565d"/></g><g><path d="m322.8 277c7.6 30.3-36.6 42.4-45.6 12.5-7.6-30.3 36.6-42.4 45.6-12.5z" fill="#f0be5f"/></g><g><path d="m511.1 225.1c3.5 12.6-3.9 25.6-16.5 29.1l-188.3 51.8c29.9-9 17.7-53.2-12.6-45.6l188.3-51.8c12.7-3.5 25.7 3.9 29.1 16.5z" fill="#f7d787"/></g><g><path d="m443.9 243.7c3.5 12.6-3.9 25.6-16.5 29.1l-53.8 14.8c29.9-9 17.7-53.2-12.6-45.6l53.8-14.8c12.6-3.6 25.6 3.8 29.1 16.5z" fill="#416079"/></g><g><path d="m373.5 287.5c2.4 1.1 9.1 4.6 13.6 12.5 4.2 7.3 4.1 14.3 4 17 4.7-4 14.3-11.2 28.4-14.5 11.7-2.8 21.6-1.8 27.4-.8-.1-2.9-.6-10-5.4-17.3-4.9-7.4-11.5-10.6-14.1-11.7-18 5-35.9 9.9-53.9 14.8z" fill="#56778f"/></g><g><path d="m322.3 98.5c-.3 11.9-35.8 11.9-36.1 0 .3-11.8 35.8-11.8 36.1 0z" fill="#f7d787"/></g><g><g><path d="m224.6 164c-3.1 0-5.6-2.5-5.6-5.6v-27.4c0-2.3 1.4-4.3 3.5-5.1l79.6-32.5c6.7-2.7 10.9 7.5 4.2 10.3 0 0-76.2 31.1-76.2 31.1v23.7c.1 3.1-2.4 5.5-5.5 5.5z" fill="#56778f"/></g></g><g><path d="m245.2 280.5h-41.2c3.9-31.8 11.4-68.6 20.5-99 9.4 30.5 16.8 67 20.7 99z" fill="#56778f"/></g><g><path d="m236.1 170c-.3 15.1-22.8 15.1-23 0 .2-15.1 22.8-15.1 23 0z" fill="#f7d787"/></g></g></svg>